<?xml version="1.0" encoding="utf-8"?>
<!-- Generator: Adobe Illustrator 24.1.2, SVG Export Plug-In . SVG Version: 6.00 Build 0)  -->
<svg version="1.1" id="Layer_1" xmlns="http://www.w3.org/2000/svg" xmlns:xlink="http://www.w3.org/1999/xlink" x="0px" y="0px"
	 viewBox="0 0 40 40" style="enable-background:new 0 0 40 40;" xml:space="preserve">
<style type="text/css">
	.st0{fill:#4285F4;}
</style>
<g>
	<path class="st0" d="M40,18.2c0,2.2,0,4.4,0,6.5c0,1.8-1,2.8-2.7,2.8c-4.2,0-8.5,0-12.7,0c-0.7,0-0.9-0.2-0.8-0.9c0-0.3,0-0.7,0-1
		c-0.1-1.3-1-2.4-2.3-2.4c-0.9-0.1-1.8-0.1-2.7,0c-1.4,0.1-2.4,1.1-2.4,2.5c0,1.8,0,1.8-1.9,1.8c-3.8,0-7.6,0-11.5,0
		c-1.9,0-2.9-1-2.9-2.9c0-4.3,0-8.7,0-13c0-1.9,1-2.8,2.8-2.9c2.6,0,5.2,0,7.8,0c1.5,0,1.5,0,1.5-1.5c0-2,0.9-3.4,2.6-4.3
		c0.6-0.3,1.3-0.5,2-0.5c2.1,0,4.1,0,6.2,0c2.7,0,4.7,2,4.7,4.7c0,1.5,0,1.5,1.5,1.5c2.6,0,5.2,0,7.8,0c1.9,0,2.9,1,2.9,2.9
		C40,13.8,40,16,40,18.2z M19.9,8.8c1.5,0,3.1,0,4.6,0c1.6,0,1.4,0.3,1.4-1.5c0-1.6-1.1-2.8-2.7-2.8c-2.2,0-4.3,0-6.5,0
		c-1,0-1.7,0.5-2.2,1.2c-0.5,0.7-0.4,1.6-0.5,2.4c0,0.5,0.2,0.7,0.7,0.7C16.5,8.7,18.2,8.8,19.9,8.8z"/>
	<path class="st0" d="M20,37.5c-5.5,0-10.9,0-16.4,0c-1.7,0-2.3-0.7-2.4-2.3c0-1.9,0-3.8,0-5.7c0-0.5,0.1-0.8,0.7-0.8
		c4.5,0,9.1,0,13.6,0c0.5,0,0.7,0.2,0.7,0.7C16,32,17,33.4,20,33.1c0,0,0.1,0,0.1,0c2.6,0.2,3.9-0.9,3.6-3.6
		c-0.1-0.6,0.1-0.8,0.8-0.8c4.5,0,9,0,13.5,0c0.6,0,0.8,0.2,0.8,0.8c0,2,0,3.9,0,5.9c0,1.4-0.7,2.1-2.1,2.1
		C31.1,37.5,25.5,37.5,20,37.5z"/>
	<path class="st0" d="M17.5,28.1c0-0.8,0-1.6,0-2.4c0-0.8,0.5-1.3,1.3-1.3c0.8,0,1.6,0,2.3,0c0.8,0,1.3,0.5,1.3,1.3c0,1.7,0,3.3,0,5
		c0,0.8-0.5,1.2-1.2,1.2c-0.8,0-1.7,0-2.5,0c-0.8,0-1.2-0.5-1.2-1.2C17.5,29.8,17.5,28.9,17.5,28.1z"/>
</g>
</svg>
