<svg id="Layer_1" data-name="Layer 1" xmlns="http://www.w3.org/2000/svg" viewBox="0 0 348.4 231.2">
  <g>
    <path d="M372.5,434.4H502.7c18.9,0,26.6,7.7,26.6,26.7q.2,71.9,0,143.7c0,18.3-7.9,26.3-26.3,26.3H240.9c-17.6,0-25.7-8.3-25.7-26q-.1-72.7,0-145.5c0-17.1,8.1-25.2,25.4-25.2Zm-.2,183.8H502.5c11.2-.1,13.6-2.3,13.6-13.4q.1-71.8,0-143.7c0-11.6-2.3-13.8-14.1-13.8q-129.7-.2-259.5,0c-11.7,0-14.1,2.3-14.1,13.8q-.2,71.4,0,142.8c0,12.2,2.2,14.3,14.6,14.3Z" transform="translate(-198.1 -434.3)"/>
    <path d="M372.3,665.5c-51.1,0-102.1.1-153.2,0-11.4,0-17.9-3.9-20.3-12s.7-12,8.6-12c42.5-.2,85-.1,127.5-.1,1.8,0,4.7,0,5.2,1,4.9,9.4,13.6,6.4,21.2,6.7s17.7,0,26.5,0c6.1,0,12.3.7,16.1-6,1.8-3,5.6-1.7,8.5-1.7q61.1-.1,122,0c4.2,0,9.1-.8,11.2,4.1s.1,10.2-3.5,14.4-10.4,5.7-16.7,5.7Z" transform="translate(-198.1 -434.3)"/>
  </g>
</svg>
