<svg id="Layer_1" data-name="Layer 1" xmlns="http://www.w3.org/2000/svg" viewBox="0 0 117.4 91.2">
  <g>
    <path d="M516.3,577h.7l22-3.8c.9-.1,1.4,0,1.7.3s.1,1.4,0,1.8l-6.5,18.2c-.3,1.2-.9,2.6-1.4,2.6a1.6,1.6,0,0,1-.6-.5c-4.7-5.1-4.6-5-9.6-.6-11.1,9.8-22.3,19.5-33.3,29.3-1.8,1.6-3.1,1.4-4.9.3-3.8-2.4-7.8-4.5-11.6-6.8a3.8,3.8,0,0,0-4.7,0c-12.5,7.5-25,14.8-37.4,22.4-2.3,1.4-3.7,1.7-4.8-1.1l-.4-.6c-2.9-4.8-2.9-4.8,1.8-7.8,13.1-8.3,26.2-16.6,39.3-25.1a4.7,4.7,0,0,1,6,0c3.6,2.6,7.5,4.8,11.2,7.3,1.5,1,2.5,1,3.9-.2,10.5-9.1,21.1-18.2,31.7-27.1,2-1.7,2-2.9.3-4.6a40.9,40.9,0,0,1-2.9-3.4Z" transform="translate(-423.5 -573.1)"/>
    <path d="M536.8,637.7c0,7.7-.1,15.4,0,23.1.1,2.6-.7,3.6-3.4,3.5-4.8-.2-9.7-.1-14.5,0-2.1,0-3.1-.5-3.1-2.9.1-15.7.1-31.3,0-47,0-2.4,1.4-3.5,2.8-4.8s4.8-6.5,7.8-6.6,5.1,4.1,7.9,6.2a6.5,6.5,0,0,1,2.5,5.8C536.7,622.6,536.8,630.2,536.8,637.7Z" transform="translate(-423.5 -573.1)"/>
    <path d="M507.5,642.7c0,6.1,0,12.2.1,18.3,0,2.3-.6,3.3-3.2,3.3q-7-.3-14.1,0c-2.5,0-3.3-1-3.2-3.3.1-7.2,0-14.4,0-21.7a4.4,4.4,0,0,1,1.7-3.8c5.4-4.3,10.6-8.7,15.9-13,.7-.5,1.3-1.5,2.2-1.1s.6,1.8.6,2.7c.1,6.2.1,12.4.1,18.6Z" transform="translate(-423.5 -573.1)"/>
    <path d="M479.1,647.8c0,4.3-.2,8.6,0,13,.1,2.5-.6,3.6-3.3,3.5-4.3-.2-8.7-.2-13-.1-2.2.1-3.1-.5-3.1-2.9.1-8.4.1-16.8,0-25.3a3.9,3.9,0,0,1,1.8-3.7,12.4,12.4,0,0,0,1.8-1.4c6.5-5.1,7.6-5.1,14.3-.1a4,4,0,0,1,1.5,3.6C479,638.8,479.1,643.3,479.1,647.8Z" transform="translate(-423.5 -573.1)"/>
    <path d="M450.5,651.7c0,3.2-.1,6.5,0,9.7s-.7,2.9-2.8,2.9H433.6c-2.2,0-2.7-.9-2.8-2.9-.4-10.9-.5-10.9,9-16.4,2.6-1.4,5.2-2.9,7.7-4.5s3.1-1.3,3,1.5S450.5,648.5,450.5,651.7Z" transform="translate(-423.5 -573.1)"/>
  </g>
</svg>
