<svg id="Layer_1" data-name="Layer 1" xmlns="http://www.w3.org/2000/svg" viewBox="0 0 250.4 205.2">
  <g>
    <path d="M375.1,468.4H489.4c5.5,0,9.3,2.8,10.4,7.5a14.3,14.3,0,0,1,.3,2.9V663.1c0,6.6-4,10.5-10.6,10.5H260.2c-6.4,0-10.5-4-10.5-10.4V478.9c0-6.6,4-10.5,10.6-10.5Zm0,190.8H484.4c1.9,0,2.4-.5,2.4-2.4V518.7c0-2-.5-2.4-2.4-2.4H265.5c-2,0-2.6.5-2.6,2.5q.2,68.9.1,137.8c0,2.6,0,2.6,2.7,2.6ZM338.2,501.6a7.6,7.6,0,0,0,7.5-7.6,7.5,7.5,0,1,0-7.5,7.6Zm-57.4-15a7.5,7.5,0,0,0,.1,15,7.7,7.7,0,0,0,7.5-7.5A7.6,7.6,0,0,0,280.8,486.6Zm28.8,0a7.4,7.4,0,0,0-7.5,7.3,7.5,7.5,0,1,0,14.9.1A7.4,7.4,0,0,0,309.6,486.6Z" transform="translate(-249.7 -468.4)"/>
    <path d="M390.7,545.2c2.5,0,5,.1,7.5-.1s2.2.3,1.5,2.1L382.3,595c-4,11.2-8.1,22.4-12.1,33.5-.5,1.4-1.1,2-2.6,2q-7.7-.2-15.3,0c-1.8,0-2.2-.3-1.5-2.2,7.8-21.5,15.6-43.1,23.5-64.6,2-5.7,4.1-11.3,6-16.9a2.2,2.2,0,0,1,2.4-1.7C385.4,545.3,388,545.2,390.7,545.2Z" transform="translate(-249.7 -468.4)"/>
    <path d="M405,618.9c0-5.2,0-10.3-.1-15.3,0-1.2.8-1.3,1.6-1.6l31.6-12.9c.6-.3,1.2-.3,1.7-.9s-.9-.7-1.3-.9c-10.6-4.8-21.1-9.7-31.7-14.4a2.8,2.8,0,0,1-1.9-3q.2-6.4,0-12.9c0-1.2.1-1.7,1.5-1L461,583.4a1.8,1.8,0,0,1,1.3,2q-.2,3.5,0,6.9a1.8,1.8,0,0,1-1.2,1.9l-55.4,24.6Z" transform="translate(-249.7 -468.4)"/>
    <path d="M309.5,588.2l11.4,4.6q11.1,4.7,22.2,9c1.4.6,1.8,1.2,1.7,2.6v14.7l-13.5-6-41.6-18.4c-1.7-.7-2.4-1.6-2.2-3.4a22.6,22.6,0,0,0,0-5.2,2.7,2.7,0,0,1,1.8-3l53.4-26.7c2.1-1,2.1-1,2.1,1.4,0,4.1-.1,8.3,0,12.5.1,1.3-.4,1.9-1.6,2.5-10.3,4.6-20.6,9.4-30.9,14.1Z" transform="translate(-249.7 -468.4)"/>
  </g>
</svg>
