<svg id="OBJECTS" xmlns="http://www.w3.org/2000/svg" xmlns:xlink="http://www.w3.org/1999/xlink" viewBox="0 0 330.72066 356.4"><defs><style>.cls-1,.cls-26{fill:none;}.cls-1{stroke:#d3dde8;stroke-linecap:round;stroke-linejoin:round;stroke-width:10px;}.cls-2{fill:#2a3749;}.cls-3{fill:url(#linear-gradient);}.cls-4{fill:url(#linear-gradient-2);}.cls-5{fill:#e0ac69;}.cls-6{fill:url(#linear-gradient-3);}.cls-7{fill:url(#linear-gradient-4);}.cls-8{fill:#19212b;}.cls-9{fill:url(#linear-gradient-5);}.cls-10{fill:url(#linear-gradient-6);}.cls-11{fill:url(#linear-gradient-7);}.cls-12{fill:url(#linear-gradient-8);}.cls-13{fill:#ababab;}.cls-14{fill:url(#linear-gradient-9);}.cls-15{fill:#b8696a;}.cls-16{fill:url(#linear-gradient-10);}.cls-17{fill:#f9fbfc;}.cls-18{fill:url(#linear-gradient-11);}.cls-19{fill:url(#linear-gradient-12);}.cls-20{fill:url(#linear-gradient-13);}.cls-21{fill:url(#linear-gradient-14);}.cls-22{fill:url(#linear-gradient-15);}.cls-23{fill:url(#linear-gradient-16);}.cls-24{fill:url(#linear-gradient-17);}.cls-25{fill:url(#linear-gradient-18);}.cls-26{stroke:#e0ac69;stroke-miterlimit:10;}.cls-27{fill:url(#linear-gradient-19);}.cls-28{fill:url(#linear-gradient-20);}.cls-29{fill:#fbbb4e;}.cls-30{fill:#0064fe;}.cls-31{fill:#864df9;}.cls-32{fill:#f9654d;}</style><linearGradient id="linear-gradient" x1="481.34264" y1="388.97064" x2="537.36694" y2="76.63" gradientUnits="userSpaceOnUse"><stop offset="0.36418" stop-color="#f9654d"/><stop offset="1" stop-color="#fbbb4e"/></linearGradient><linearGradient id="linear-gradient-2" x1="439.20729" y1="323.16941" x2="439.20729" y2="256.95352" gradientUnits="userSpaceOnUse"><stop offset="0" stop-color="#f1c27d"/><stop offset="1" stop-color="#ffdbac"/></linearGradient><linearGradient id="linear-gradient-3" x1="440.7685" y1="296.65276" x2="432.88485" y2="261.36391" gradientUnits="userSpaceOnUse"><stop offset="0" stop-color="#f1c27d"/><stop offset="0.0908" stop-color="#f1c27d" stop-opacity="0.97005"/><stop offset="0.22516" stop-color="#f1c27d" stop-opacity="0.88698"/><stop offset="0.38667" stop-color="#f1c27d" stop-opacity="0.75078"/><stop offset="0.56921" stop-color="#f1c27d" stop-opacity="0.56133"/><stop offset="0.76937" stop-color="#f1c27d" stop-opacity="0.31844"/><stop offset="0.98132" stop-color="#f1c27d" stop-opacity="0.0272"/><stop offset="1" stop-color="#f1c27d" stop-opacity="0"/></linearGradient><linearGradient id="linear-gradient-4" x1="514.23442" y1="295.84494" x2="514.23442" y2="196.71449" xlink:href="#linear-gradient-2"/><linearGradient id="linear-gradient-5" x1="489.05638" y1="269.79893" x2="489.05638" y2="227.62149" gradientUnits="userSpaceOnUse"><stop offset="0" stop-color="#8756d8"/><stop offset="1" stop-color="#edddf4"/></linearGradient><linearGradient id="linear-gradient-6" x1="518.67451" y1="239.30055" x2="518.67451" y2="179.44249" gradientUnits="userSpaceOnUse"><stop offset="0" stop-color="#f9654d"/><stop offset="1" stop-color="#0064fe"/></linearGradient><linearGradient id="linear-gradient-7" x1="479.27707" y1="219.68196" x2="479.27707" y2="133.14214" xlink:href="#linear-gradient-6"/><linearGradient id="linear-gradient-8" x1="463.07207" y1="202.726" x2="472.24014" y2="281.05874" gradientUnits="userSpaceOnUse"><stop offset="0" stop-color="#2a3749"/><stop offset="1" stop-color="#0064fe"/></linearGradient><linearGradient id="linear-gradient-9" x1="469.88738" y1="252.73116" x2="469.88738" y2="228.57872" xlink:href="#linear-gradient-6"/><linearGradient id="linear-gradient-10" x1="490.2954" y1="267.99796" x2="486.2962" y2="249.80157" gradientUnits="userSpaceOnUse"><stop offset="0" stop-color="#e35d6a"/><stop offset="1" stop-color="#c98276"/></linearGradient><linearGradient id="linear-gradient-11" x1="492.70904" y1="267.72334" x2="487.73939" y2="288.10441" xlink:href="#linear-gradient-10"/><linearGradient id="linear-gradient-12" x1="554.30201" y1="263.18548" x2="554.30201" y2="228.62957" xlink:href="#linear-gradient-2"/><linearGradient id="linear-gradient-13" x1="522.3897" y1="309.22265" x2="523.40489" y2="266.39641" gradientUnits="userSpaceOnUse"><stop offset="0" stop-color="#e0ac69"/><stop offset="0.46589" stop-color="#e6b370"/><stop offset="1" stop-color="#f1c27d"/></linearGradient><linearGradient id="linear-gradient-14" x1="450.05834" y1="404.68498" x2="381.28332" y2="281.33859" gradientUnits="userSpaceOnUse"><stop offset="0" stop-color="#2a3749"/><stop offset="0.47825" stop-color="#154da1"/><stop offset="1" stop-color="#0064fe"/></linearGradient><linearGradient id="linear-gradient-15" x1="556.66995" y1="406.91161" x2="511.8316" y2="307.35319" gradientUnits="userSpaceOnUse"><stop offset="0" stop-color="#2a3749"/><stop offset="0" stop-color="#243e65"/><stop offset="0.38515" stop-color="#164da1"/><stop offset="1" stop-color="#0064fe"/></linearGradient><linearGradient id="linear-gradient-16" x1="422.02733" y1="365.5334" x2="405.63299" y2="383.70012" gradientUnits="userSpaceOnUse"><stop offset="0.67039" stop-color="#2a3749"/><stop offset="0.82803" stop-color="#154da1"/><stop offset="1" stop-color="#0064fe"/></linearGradient><linearGradient id="linear-gradient-17" x1="517.24499" y1="457.67477" x2="517.24499" y2="334.31519" xlink:href="#linear-gradient-14"/><linearGradient id="linear-gradient-18" x1="377.31288" y1="352.02499" x2="377.31288" y2="252.63042" xlink:href="#linear-gradient-2"/><linearGradient id="linear-gradient-19" x1="387.68945" y1="334.76317" x2="361.03515" y2="277.70037" xlink:href="#linear-gradient-3"/><linearGradient id="linear-gradient-20" x1="362.97572" y1="309.88547" x2="342.37202" y2="286.62326" xlink:href="#linear-gradient-3"/></defs><path class="cls-1" d="M774.67028,597.7155" transform="translate(-306.75191 -59.82)"/><path class="cls-2" d="M378.35,161.88c-1.37136-2.933-14.12871-30.92793-8.64423-54a61.82761,61.82761,0,0,1,8.75981-19.94458A55.53907,55.53907,0,0,1,388.4,77.64c11.51554-9.33962,24.43323-12.91895,32.88-14.4a238.05636,238.05636,0,0,1,26.413-1.39675,125.14806,125.14806,0,0,1,17.6561,1.01117c9.87726,1.42978,18.37558,2.66,20.0109,5.42558C488.58514,73.73433,470.67993,94.56986,378.35,161.88Z" transform="translate(-306.75191 -59.82)"/><path class="cls-3" d="M624.07,367.3a85.34464,85.34464,0,0,1-10.15,14.08c-18.49,20.86-47.63,31.66-87.28,34.45a187.43014,187.43014,0,0,1-20.57,0c-14.88-.74-35.83-3.22-56.72-10.52-.57-.19-1.15-.4-1.72-.61q-.495-.16506-.99-.36a129.4781,129.4781,0,0,1-32.18-17.01c-.95-.69-1.9-1.41-2.83-2.15a99.25192,99.25192,0,0,1-13.69-13.01,95.2527,95.2527,0,0,1-13.86-20.93,98.50716,98.50716,0,0,1-5.67005-14.4c-.97-3.14-1.76-6.27-2.41-9.37v-.01a120.115,120.115,0,0,1-1.29-38.8v-.01A147.72877,147.72877,0,0,1,379.04,267c-.93-3.51-1.94-7.63-2.88-12.29v-.01a210.33617,210.33617,0,0,1-3.5-24.21,206.96418,206.96418,0,0,1,.31-38.68v-.01a201.36284,201.36284,0,0,1,5.38-29.92,203.63867,203.63867,0,0,1,27.33-61.2c7.11-9.3,30.09-36.85,64.21-38.16,10.05-.39,18.03,1.63,25.77,3.64,34.49005,8.97,57.27,28.7,64.82,35.24q5.25,4.545,10.19,9.67005a177.87184,177.87184,0,0,1,12.18,14c29.27,37.25,48.29,89.57,52.51,142.3C638.18,302.65,640.93,338.06,624.07,367.3Z" transform="translate(-306.75191 -59.82)"/><path class="cls-4" d="M413.06549,294.853l1.06-28.5659V253.9998a12.035,12.035,0,0,1,1.0152-4.8378l7.3481-16.7368,3.434-12.5518,12.2957,30.2132v7.7331h1.9372l1.0537-12.3024,8.1418-.1662,1.6615,33.0656,3.1571-8.298s-.0376-8.0602,4.2093-14.5765l6.97-1.8771-.05009,4.9787a14.53078,14.53078,0,0,0-1.67431,8.023,12.09366,12.09366,0,0,1-.217,4.0675,67.8493,67.8493,0,0,0-1.535,12.7887,14.38508,14.38508,0,0,1-.9298,5.2673c-1.9468,5.0257-6.6525,15.2105-14.2503,19.8673l-7.6775,15.2706-8.5628,2.8407-8.185-2.6945S416.65789,318.7664,413.06549,294.853Z" transform="translate(-306.75191 -59.82)"/><path class="cls-5" d="M422.93188,263.00879a27.71525,27.71525,0,0,0-.05755-4.6998,16.47942,16.47942,0,0,0-.97589-4.51129l-.03638-.09479.02167-.11871c.57995-3.17676,1.2247-6.33986,1.89212-9.49822l.01373-.065.029-.05676c.848-1.65837,1.69352-3.31793,2.56641-4.96369l-.04691.228c-.11523-2.26008-.15643-4.52476-.23828-6.78692l.01844.08143c-.28235-.6815-.82648-1.45323-1.61649-1.40536a2.16719,2.16719,0,0,0-1.09137.45334,7.16058,7.16058,0,0,0-.9216.85426,6.83127,6.83127,0,0,1,.81747-.9817,2.38294,2.38294,0,0,1,1.16718-.61386,1.64707,1.64707,0,0,1,1.30621.41088,3.174,3.174,0,0,1,.8244,1.08672l.014.03012.00455.05171c.19861,2.25492.43787,4.5073.60309,6.76427l.0083.11337-.0553.115c-.80749,1.6788-1.64236,3.34378-2.47482,5.01l.04266-.12143c-.66186,3.15951-1.34631,6.31428-2.09561,9.4554l-.01471-.21311a17.10531,17.10531,0,0,1,.73874,4.74893A22.6901,22.6901,0,0,1,422.93188,263.00879Z" transform="translate(-306.75191 -59.82)"/><path class="cls-5" d="M430.07669,257.8197a13.63353,13.63353,0,0,1-.31131-3.89079,13.47838,13.47838,0,0,1,.68692-3.84232,13.48044,13.48044,0,0,1,.31131,3.8908A13.63276,13.63276,0,0,1,430.07669,257.8197Z" transform="translate(-306.75191 -59.82)"/><path class="cls-6" d="M451.01269,278.4167s-17.6128,5.8156-17.2805,28.0808c0,0-2.93419,6.1479-6.9503,4.8186,0,0,3.6704-17.6128-2.2573-32.5671-6.4211-16.1988,16.25541-17.3359,25.6337-17.3359Z" transform="translate(-306.75191 -59.82)"/><path class="cls-7" d="M468.95789,258.81s.7358,4.1301,4.4288,11.8036c8.6224,17.9164,8.0631,24.2953,13.0178,28.2406,3.54751,2.8247,17.9734,1.2803,17.9734,1.2803l5.7657,23.1305a4.6218,4.6218,0,0,0,4.4845,3.5039h.0602a4.61249,4.61249,0,0,0,3.0954-1.1897c5.8602-5.2995,30.13231-26.7609,45.3862-32.7898,0,0-8.8064-11.2157-11.465-30.9886,0,0,24-84.2424-40.4231-88.5626C446.85879,168.9181,468.95789,258.81,468.95789,258.81Z" transform="translate(-306.75191 -59.82)"/><path class="cls-8" d="M542.50549,224.1462s-1.047,13.5616,9.6979,12.2323c0,0,2.5478,7.9757,9.1941,4.2094,0,0-3.5447,8.4187,0,12.4065,0,0-4.3201,6.314-9.6926,8.8064,0,0-2.43689,10.468,2.4093,15.1205,0,0-1.5785,8.6402,6.3971,7.9756l7.0895-6.4248s8.1971.6912,5.9817-3.1991c-2.21549-3.8904-5.9817-11.146-5.9817-11.146s18.8313,8.1418,21.7114,2.1601-10.1911-5.0955-10.1911-5.0955,7.5325-4.1478,2.8801-9.7172c0,0,10.1911-3.1324,5.7602-12.6589,0,0,5.317,1.1078,3.9878-4.6524-1.3293-5.7602,2.2154-7.5325,2.2154-7.5325s3.7663,3.1016,1.3293,8.8618c0,0,5.8509-2.2155.8207-9.5265,0,0-3.4792-13.2927-14.99959-8.4187,0,0-1.55081-2.8801,1.55079-8.1971,3.1017-5.3171,1.3293-10.4636-2.6585-12.3212a5.7773,5.7773,0,0,0-.2216-6.8876s3.9879.8205,5.0956-7.1551,4.874,0,4.874,0-2.8801-9.9695-6.20329-3.5447c0,0-2.437-7.0894-6.86791-.4431-4.4309,6.6464-3.7662-19.939-18.3882-13.9573a9.93513,9.93513,0,0,0-2.9885-10.454,1.745,1.745,0,0,1,2.1461-2.7409q.08805.0606.1777.1237s-9.6897-11.6455-13.06219-3.8781a8.92864,8.92864,0,0,0-.383,5.6547l.75059,3.091s-4.3643-8.1908-10.1245-1.5444c0,0-9.3049-.8862-8.19709,5.9817,0,0-5.48671-10.4126-12.38061-6.8679,0,0-10.217,5.5386-11.98939-3.3232-1.77231-8.8618-10.85571-.8861-5.98171,5.0956,0,0-18.46229-12.185-20.53-5.0956-2.0676,7.0895-7.6304,4.4309-5.846-.4431,1.7845-4.8739,9.3898-5.5386,9.3898-5.5386s-14.9338-2.2154-13.92809,7.7541c0,0-6.20141,4.6524-.05,11.2988,0,0-9.8-5.7602-10.90771.8862,0,0-11.0772.1413-8.4187,8.0463,2.6585,7.9049-2.2155,9.6773-4.874,5.911s1.5508-9.0833,1.5508-9.0833-11.2988,8.6402.22161,16.1727c0,0-2.437,7.311,3.10159,8.1972,0,0-15.9512-2.4879-13.0712,2.7439,2.8801,5.2317-1.3292,7.6687-3.7662,6.7825,0,0-5.2748,13.5143,9.8799,8.1972S542.50549,224.1462,542.50549,224.1462Z" transform="translate(-306.75191 -59.82)"/><path class="cls-9" d="M537.803,224.6366s-.74431-14.5193-1.10781-19.6067c-.3323-4.6524-6.7158-6.8584-6.7158-6.8584s-5.6907-2.4464-17.1002-6.3235c-.4015-.1365-.7966-.242-1.1944-.3597,9.1327,5.9461,7.951,21.9767,7.61921,32.5945-.33231,10.6341-8.19721,16.1728-28.46861,19.2744-20.2581,3.0996-50.6401,11.2289-50.6797,11.2395a8.97386,8.97386,0,0,0,1.8291.2808l16.3943.6647,13.625-4.2094.1108-1.2185h-3.6555c6.3652-4.0589,17.8007-3.4317,21.4472-3.1084a10.7308,10.7308,0,0,0,2.4485-.0627c4.68-.6537,21.0606-2.975,33.3737-5.1368C540.24,239.2586,537.803,224.6366,537.803,224.6366Z" transform="translate(-306.75191 -59.82)"/><path class="cls-10" d="M542.50549,224.1462c-.0831-1.604-.5206-11.3226-.8663-17.5838a6.03044,6.03044,0,0,0-3.8023-5.274l-7.2603-2.8801c1.5939.6816,5.8489,2.8457,6.1186,6.6216.3635,5.0874,1.10781,19.6067,1.10781,19.6067s2.437,14.622-12.07421,17.1698c-10.7746,1.8917-24.6639,3.9055-31.1023,4.8172l1.6904.8973a18.50543,18.50543,0,0,0,11.4353,1.9572c6.0454-.9103,12.8821-1.9838,18.7931-3.0214C540.40309,244.0235,543.66959,231.8958,542.50549,224.1462Z" transform="translate(-306.75191 -59.82)"/><path class="cls-11" d="M511.68479,191.4883a34.58016,34.58016,0,0,0-20.2955.3597c9.73571-2.6587,11.1881,3.9878,11.1881,3.9878s3.2124,15.6189,1.883,29.3547c-1.3292,13.7358-14.5111,15.8404-14.5111,15.8404s-44.0874,9.6373-50.9341,12.6341c-.009.4847.532.7565,1.1405.9317.0396-.0106,30.4216-8.1399,50.6797-11.2395,20.2714-3.1016,28.1363-8.6403,28.46861-19.2744C519.63579,213.465,520.81749,197.4344,511.68479,191.4883Z" transform="translate(-306.75191 -59.82)"/><path class="cls-12" d="M504.46039,225.1905c1.3294-13.7358-1.883-29.3547-1.883-29.3547s-1.45239-6.6465-11.1881-3.9878l-57.6017,15.7297c-8.4187,2.2154-7.8648,12.2957-7.8648,12.2957s.3323,16.7267,1.32921,23.9269a10.20812,10.20812,0,0,0,7.42179,8.6403l4.3414,1.2244c6.8467-2.9968,50.9341-12.6341,50.9341-12.6341S503.13119,238.9263,504.46039,225.1905Z" transform="translate(-306.75191 -59.82)"/><path class="cls-13" d="M513.44568,197.0289c-1.28449.274-2.5741.51344-3.86237.76192l-.02124.00194a2.63694,2.63694,0,0,0-1.66565,1.04354,4.2838,4.2838,0,0,0-.70672,1.91353,19.96293,19.96293,0,0,0,.2745,4.31136c.30789,2.93908.50672,5.8818.65973,8.82838.12918,2.94864.23313,5.89481.1453,8.86278a14.0333,14.0333,0,0,0-.01148,2.14836,4.64961,4.64961,0,0,0,.58563,1.96175,4.09,4.09,0,0,0,3.47116,1.92882l.01349-.00031c1.15308.066,2.30619.13081,3.45887.22124-1.155.05348-2.30957.08133-3.46418.11042l.0131-.0003a4.38413,4.38413,0,0,1-4.02381-1.93126,7.75878,7.75878,0,0,1-.89081-4.45512c-.00921-2.92189-.15261-5.864-.29461-8.79764q-.20907-4.40334-.5174-8.8a19.14581,19.14581,0,0,1-.05758-4.491,4.85907,4.85907,0,0,1,.92636-2.14152,2.93348,2.93348,0,0,1,2.07174-1.0822l-.02081.00189C510.83368,197.28784,512.13712,197.14111,513.44568,197.0289Z" transform="translate(-306.75191 -59.82)"/><path class="cls-14" d="M472.11489,250.1144l-.1107,1.2185-6.6551,2.3322a6.47013,6.47013,0,0,0,.09591,1.714,3.05051,3.05051,0,0,0,4.78409,1.9812l.0581-.0457c1.3232-1.0585,3.9303-3.1948,3.9591-4.9622,0,0-2.03629-3.298.19871-4.5841a19.34561,19.34561,0,0,0-5.98561,2.3461Z" transform="translate(-306.75191 -59.82)"/><path class="cls-5" d="M479.27709,252.8622l-2.8005-2.7756s-1.8278,1.2047.2492,2.3263A2.13383,2.13383,0,0,1,479.27709,252.8622Z" transform="translate(-306.75191 -59.82)"/><path class="cls-5" d="M482.37519,252.5375s-.9925-2.1866.29081-2.8532c1.24619-.6473,3.697.8008,5.64939,2.1885C488.31539,251.8728,484.32759,250.5851,482.37519,252.5375Z" transform="translate(-306.75191 -59.82)"/><path class="cls-15" d="M483.12289,268.1979l-1.1138,7.8372s18.02091,1.8927,21.1777-9.7432l-19.33-2.1649Z" transform="translate(-306.75191 -59.82)"/><path class="cls-16" d="M478.34589,268.1979s-4.1665-1.9037-3.90089-5.5663c.27309-3.7662,3.90859-4.4309,6.64249-3.7662,0,0,3.6148-2.5403,11.8349.9192a56.52709,56.52709,0,0,1,11.8603,6.5025s-17.15969.2216-23.2798-2.1601C481.50289,264.127,479.509,266.8687,478.34589,268.1979Z" transform="translate(-306.75191 -59.82)"/><path class="cls-17" d="M478.828,267.6256l.00009.0001.1833,1.3975a1.8277,1.8277,0,0,0,2.2064,1.5476,101.47189,101.47189,0,0,1,19.3128-1.932,2.73847,2.73847,0,0,0,2.6562-2.3469h-.0001c-4.3972-.0123-16.6999-.2255-21.6838-2.1649C481.50289,264.127,479.98729,266.2106,478.828,267.6256Z" transform="translate(-306.75191 -59.82)"/><path class="cls-18" d="M483.12289,270.1915c-.649,1.6459-1.2915,5.2602,1.2047,5.0682,4.3201-.3323,14.705-3.5724,17.862-7.0618l.9972-1.906,1.5959-.0048s-3.5485,13.4403-16.0935,16.0989c-8.7384,1.8518-12.0049-4.7586-8.1417-10.0341A13.0611,13.0611,0,0,1,483.12289,270.1915Z" transform="translate(-306.75191 -59.82)"/><path class="cls-17" d="M493.10009,273.1204l-8.9078.1669a1.08975,1.08975,0,0,0-1.0694,1.0896v.7862a3.50563,3.50563,0,0,0,1.2046.0966A39.58187,39.58187,0,0,0,493.10009,273.1204Z" transform="translate(-306.75191 -59.82)"/><path class="cls-19" d="M544.20589,255.8501a5.38419,5.38419,0,0,0,.8549,5.6428,4.48083,4.48083,0,0,0,3.3209,1.5159c4.3202.1213,16.4747-8.4121,16.4498-23.8056-.0211-12.9774-10.6342-9.3048-12.6281-2.8247Z" transform="translate(-306.75191 -59.82)"/><path class="cls-20" d="M506.89679,299.8662s23.3736-7.9906,32.1801-31.6683c0,0-2.7213,41.2533-17.1975,45.768C512.82209,316.7906,506.89679,299.8662,506.89679,299.8662Z" transform="translate(-306.75191 -59.82)"/><path class="cls-21" d="M447.63,404.7q-.495-.16506-.99-.36a129.4781,129.4781,0,0,1-32.18-17.01,24.22438,24.22438,0,0,1-2.83-2.15,99.25192,99.25192,0,0,1-13.69-13.01,106.18469,106.18469,0,0,1,4.72-20.31c.72-2.14,1.22-3.38,1.22-3.38,3.49-13.64,15.35-19.75,24.33-22.45,1.96-.59,3.78-1.01,5.34-1.32a45.14995,45.14995,0,0,1,5.47-.78l.38995,3.68,3.13,29.3.05.46,4.77,44.76.24,2.29Z" transform="translate(-306.75191 -59.82)"/><path class="cls-22" d="M626.97,342.06c-.92,8.96-1.91,17.44-2.9,25.24a85.34464,85.34464,0,0,1-10.15,14.08c-18.49,20.86-47.63,31.66-87.28,34.45H506.07c-14.88-.74-35.83-3.22-56.72-10.52-.57-.19-1.15-.4-1.72-.61q-.495-.16506-.99-.36l.11-.36.61-1.85,20.61-62.93h.01l.15-.47s10.8-16.51,32.23-16.61c0,0,7.64-6.91,8.72-3.1.02.02.02.05.03.08l1.03,4.16a4.63977,4.63977,0,0,0,4.49,3.51l.44-.02c.13-.01.25-.03.38-.05a4.62511,4.62511,0,0,0,2.34-1.18c5.18-4.89,24.78-22.84,41.65-31.05.16-.08.31-.16.46-.23.56-.26,1.1-.52,1.65-.76s1.09-.47,1.62-.69l40.21,6.4S631.29,299.85,626.97,342.06Z" transform="translate(-306.75191 -59.82)"/><path class="cls-23" d="M408.79,356.4865s-3.13861,11.3236-1.16971,19.2565c2.483,7.8824,12.3462,12.6708,25.5574,1.1499l-6.3958-16.4492Z" transform="translate(-306.75191 -59.82)"/><path class="cls-24" d="M626.97,342.06c-.92,8.96-1.91,17.44-2.9,25.24a85.34464,85.34464,0,0,1-10.15,14.08c-18.49,20.86-47.63,31.66-87.28,34.45H506.07c-14.88-.74-35.83-3.22-56.72-10.52l-1.75-.89-.85-.44-27.47-14.07a33.79433,33.79433,0,0,1-4.82-2.58,24.22438,24.22438,0,0,1-2.83-2.15c-6.11-5.48-4.32-10.78-4.32-10.78a12.98907,12.98907,0,0,0,.3,1.3.18518.18518,0,0,0,.02.07c.04.13.08.26.13.39,3.16,10.16,16.37,10.18,25.42.73,0,0,.13-.12.37-.37.11-.13.24-.26.36-.4.14-.16.29-.34.46-.54a29.55015,29.55015,0,0,0,4.37-6.99c.08-.18.17-.36.26-.55a.142.142,0,0,1,.02-.06,61.88638,61.88638,0,0,0,3.52-11.07,77.72229,77.72229,0,0,0,1.69-18.78v-.12a82.35843,82.35843,0,0,0-.67-8.48,2.04788,2.04788,0,0,1,3.02-2.06l21.39,11.73h.01l77.91,42.73c-2.66-6.64,6.65-11.96,6.65-11.96l12.29-21.93c9.63995-46.19,38.55-48.85,38.55-48.85S631.29,299.85,626.97,342.06Z" transform="translate(-306.75191 -59.82)"/><path class="cls-25" d="M443.57379,329.6585l-20.6419-10.2006s-7.311-.6047-10.3018-28.217c-2.9909-27.6123-32.56709-84.1063-32.56709-84.1063l-10.30191-22.2653L365.441,163.601s-9.30491-3.3231-9.30491,13.9574V196.626a54.60323,54.60323,0,0,0,.4546,7.0305l2.8686,22.0879-33.2317-12.7239s-8.97259,8.6253,6.314,15.9917a244.79767,244.79767,0,0,0,27.5823,11.3542s-5.6494,18.6097-3.9878,23.7606c1.6616,5.151,5.3171,16.7373-.6646,24.403l-11.6311-5.8258s-14.622-22.3091-27.91469-19.6954,0,17.1908,9.96949,25.5212c9.9696,8.3303,19.9391,20.9584,19.9391,20.9584a63.82829,63.82829,0,0,0,30.7676,26.5854c21.4062,8.6402,56.5758,40.8191,56.5758,40.8191S447.63419,363.5453,443.57379,329.6585Z" transform="translate(-306.75191 -59.82)"/><path class="cls-5" d="M380.063,207.1346a7.67588,7.67588,0,0,0-3.73469.34085,4.147,4.147,0,0,0-2.51209,2.50592,8.25,8.25,0,0,0-.329,3.64868,24.357,24.357,0,0,0,.75348,3.69357c1.29683,4.91793,2.74661,9.81365,4.22424,14.69405l4.34682,14.67628,2.15054,7.34755,2.07935,7.37159c-1.7508-4.79886-3.37372-9.63976-4.96454-14.49118-1.58853-4.8523-3.07819-9.73574-4.56971-14.62-1.39965-4.91211-2.86468-9.804-4.01092-14.79816-.545-2.45735-1.111-5.18026-.13112-7.70727a4.52922,4.52922,0,0,1,2.87589-2.56981A7.3408,7.3408,0,0,1,380.063,207.1346Z" transform="translate(-306.75191 -59.82)"/><polygon class="cls-5" points="52.707 165.924 71.481 172.135 71.143 173.076 52.707 165.924"/><path class="cls-26" d="M360.12389,240.3664l11.18811,6.3841s.443,3.9822,7.97559,11.2055" transform="translate(-306.75191 -59.82)"/><path class="cls-5" d="M366.77139,228.5497l.10073-9.23.0294.1503q-3.31767-8.54219-6.20052-17.22969-1.44038-4.34458-2.6629-8.75822a60.98922,60.98922,0,0,1-1.902-8.94509,60.89448,60.89448,0,0,0,2.094,8.89037q1.31176,4.37783,2.84886,8.68423c2.03211,5.744,4.23493,11.43216,6.56223,17.05742l.02859.06911.00089.08157.10072,9.23Z" transform="translate(-306.75191 -59.82)"/><path class="cls-27" d="M360.12389,270.1187s15.8302,13.2273,17.94,29.0678-1.6564,28.247,13.4086,39.1027c0,0-18.3882-3.9233-19.71749-24.0054C370.42579,294.2018,364.11169,276.1104,360.12389,270.1187Z" transform="translate(-306.75191 -59.82)"/><path class="cls-28" d="M344.18829,285.8664s-.3479,5.3745-4.1286,6.0908l6.9701,4.9892a4.364,4.364,0,0,0,6.813-2.6617h0a4.34324,4.34324,0,0,0-2.1239-4.6853C348.12069,287.6046,344.18829,285.8664,344.18829,285.8664Z" transform="translate(-306.75191 -59.82)"/><path class="cls-29" d="M323.06,94.2c-5.04-2.34-16.38-9.18-16.2-11.88,0,0-.90424-5.94,2.51788-8.28S318.56,71.52,325.58,75.12s15.12,11.16,16.38,15.84,2.88,6.48,0,9.9S328.1,96.54,323.06,94.2Z" transform="translate(-306.75191 -59.82)"/><path class="cls-30" d="M379.04,386.16s-6.10005,1.8-4.04,10.08,18.44,17.82,18.44,17.82,10.62,4.86,16.74,0-4.14-12.87-4.14-12.87a46.89859,46.89859,0,0,0-7.74-6.21C393.42349,391.85452,381.14,387.18,379.04,386.16Z" transform="translate(-306.75191 -59.82)"/><path class="cls-31" d="M360.32,87.0293,361.4,67.56s1.46715-7.74,6.94358-7.74S374.72,63.42,374.18,69,360.32,87.0293,360.32,87.0293Z" transform="translate(-306.75191 -59.82)"/><path class="cls-32" d="M334.4,375l-11.34,11.88c-.36109.47229-5.25589,7.07526-2.52,13.32.4339.99039,1.99926,4.56336,5.58,5.22a7.99618,7.99618,0,0,0,7.77388-3.72476A21.02114,21.02114,0,0,0,336.38,397.14a23.19719,23.19719,0,0,0,1.26-11.16A29.67562,29.67562,0,0,0,334.4,375Z" transform="translate(-306.75191 -59.82)"/></svg>