<svg xmlns="http://www.w3.org/2000/svg" xmlns:xlink="http://www.w3.org/1999/xlink" width="3.7in" height="1.8in" viewBox="0 0 264.2 127"><defs><filter id="b" x="61" y="-8264" width="121.6" height="32766" filterUnits="userSpaceOnUse" color-interpolation-filters="sRGB"><feFlood flood-color="#fff" result="bg"/><feBlend in="SourceGraphic" in2="bg"/></filter><mask id="a" x="61" y="-8264" width="121.6" height="32766" maskUnits="userSpaceOnUse"><g style="filter:url(#b)"/></mask><radialGradient id="c" cx="-436.82" cy="105.55" r="43.07" gradientTransform="matrix(-0.13, 0.23, -1.41, -0.81, 212.2, 246.6)" gradientUnits="userSpaceOnUse"><stop offset="0" stop-color="#fff"/><stop offset="0.05" stop-color="#ebebeb"/><stop offset="0.26" stop-color="#a5a5a5"/><stop offset="0.45" stop-color="#6a6a6a"/><stop offset="0.63" stop-color="#3c3c3c"/><stop offset="0.78" stop-color="#1b1b1b"/><stop offset="0.91" stop-color="#070707"/><stop offset="1"/></radialGradient><filter id="e" x="6.97" y="-8264" width="121.6" height="32766" filterUnits="userSpaceOnUse" color-interpolation-filters="sRGB"><feFlood flood-color="#fff" result="bg"/><feBlend in="SourceGraphic" in2="bg"/></filter><mask id="d" x="6.97" y="-8264" width="121.6" height="32766" maskUnits="userSpaceOnUse"><g style="filter:url(#e)"/></mask><radialGradient id="f" cx="-276.82" cy="178.53" r="43.07" gradientTransform="matrix(0.13, 0.23, 1.41, -0.81, -146.77, 246.6)" xlink:href="#c"/><filter id="h" x="112.44" y="-8264" width="57.65" height="32766" filterUnits="userSpaceOnUse" color-interpolation-filters="sRGB"><feFlood flood-color="#fff" result="bg"/><feBlend in="SourceGraphic" in2="bg"/></filter><mask id="g" x="112.44" y="-8264" width="57.65" height="32766" maskUnits="userSpaceOnUse"><g style="filter:url(#h)"/></mask><radialGradient id="i" cx="-562.27" cy="103.54" r="20.42" xlink:href="#c"/><filter id="k" x="30.78" y="-8264" width="121.6" height="32766" filterUnits="userSpaceOnUse" color-interpolation-filters="sRGB"><feFlood flood-color="#fff" result="bg"/><feBlend in="SourceGraphic" in2="bg"/></filter><mask id="j" x="30.78" y="-8264" width="121.6" height="32766" maskUnits="userSpaceOnUse"><g style="filter:url(#k)"/></mask><radialGradient id="l" cx="-368.09" cy="120.5" r="43.07" xlink:href="#c"/><filter id="n" x="-28.84" y="-8264" width="121.6" height="32766" filterUnits="userSpaceOnUse" color-interpolation-filters="sRGB"><feFlood flood-color="#fff" result="bg"/><feBlend in="SourceGraphic" in2="bg"/></filter><mask id="m" x="-28.84" y="-8264" width="121.6" height="32766" maskUnits="userSpaceOnUse"><g style="filter:url(#n)"/></mask><radialGradient id="o" cx="-220.87" cy="147.83" r="43.07" gradientTransform="matrix(0.13, 0.23, 1.41, -0.81, -146.77, 246.6)" xlink:href="#c"/><filter id="q" x="-29.23" y="-8264" width="57.95" height="32766" filterUnits="userSpaceOnUse" color-interpolation-filters="sRGB"><feFlood flood-color="#fff" result="bg"/><feBlend in="SourceGraphic" in2="bg"/></filter><mask id="p" x="-29.23" y="-8264" width="57.95" height="32766" maskUnits="userSpaceOnUse"><g style="filter:url(#q)"/></mask><radialGradient id="r" cx="-348.88" cy="137.01" r="20.53" gradientTransform="matrix(0.13, 0.23, 1.41, -0.81, -146.77, 246.6)" xlink:href="#c"/><linearGradient id="s" x1="261.64" y1="162.41" x2="-54.92" y2="-67.95" gradientUnits="userSpaceOnUse"><stop offset="0" stop-color="#ff3b60"/><stop offset="1" stop-color="#ffcd39"/></linearGradient><linearGradient id="t" x1="-136.02" y1="-0.66" x2="-155.81" y2="32.97" gradientTransform="translate(112 180.5) rotate(90)" gradientUnits="userSpaceOnUse"><stop offset="0" stop-color="#ffae0a"/><stop offset="1" stop-color="#ffee67"/></linearGradient><linearGradient id="u" x1="61.59" y1="186.28" x2="87.7" y2="150.4" gradientTransform="translate(-87.8 172.5) rotate(-90)" xlink:href="#s"/><linearGradient id="v" x1="-135.26" y1="89.99" x2="-115.5" y2="62.83" gradientTransform="translate(112 180.5) rotate(90)" xlink:href="#s"/><linearGradient id="w" x1="-150.37" y1="53.96" x2="-106.86" y2="-5.83" gradientTransform="translate(112 180.5) rotate(90)" xlink:href="#s"/><linearGradient id="x" x1="-67.86" y1="-17.94" x2="-108" y2="50.23" xlink:href="#t"/><linearGradient id="y" x1="-80.24" y1="-47.51" x2="-101.85" y2="-10.8" xlink:href="#t"/><linearGradient id="z" x1="-127.37" y1="-45.54" x2="-144.26" y2="-16.87" xlink:href="#t"/><linearGradient id="aa" x1="-86.63" y1="-36" x2="-114.94" y2="12.08" gradientTransform="translate(112 180.5) rotate(90)" gradientUnits="userSpaceOnUse"><stop offset="0" stop-color="#ffcd39"/><stop offset="1" stop-color="#ff3b60"/></linearGradient><linearGradient id="ab" x1="-126.23" y1="82.6" x2="-93.52" y2="37.65" xlink:href="#t"/><linearGradient id="ac" x1="-129.22" y1="117.68" x2="-107.83" y2="88.29" xlink:href="#t"/><linearGradient id="ad" x1="-106.35" y1="96.77" x2="-66.3" y2="41.73" gradientTransform="translate(112 180.5) rotate(90)" xlink:href="#s"/><filter id="af" x="61" y="23.59" width="121.6" height="71.08" filterUnits="userSpaceOnUse" color-interpolation-filters="sRGB"><feFlood flood-color="#fff" result="bg"/><feBlend in="SourceGraphic" in2="bg"/></filter><mask id="ae" x="121.4" y="22.01" width="121.6" height="71.08" maskUnits="userSpaceOnUse"><g style="filter:url(#af)"><g transform="translate(60.4 -1.6)"><g style="mask:url(#a)"><path d="M182.4,94.7c2.9-5.6-21.6-25.6-55-44.8s-63-30.3-66.4-25Z" style="mix-blend-mode:multiply;fill:url(#c)"/></g></g></g></mask><radialGradient id="ag" cx="-436.82" cy="105.55" r="43.07" gradientTransform="matrix(-0.13, 0.23, -1.41, -0.81, 212.2, 246.6)" gradientUnits="userSpaceOnUse"><stop offset="0" stop-color="#ed1c24"/><stop offset="0.2" stop-color="#f25b61"/><stop offset="0.41" stop-color="#f79599"/><stop offset="0.6" stop-color="#fac3c5"/><stop offset="0.77" stop-color="#fde4e5"/><stop offset="0.91" stop-color="#fef8f8"/><stop offset="1" stop-color="#fff"/></radialGradient><filter id="ai" x="112.44" y="15.22" width="57.65" height="33.7" filterUnits="userSpaceOnUse" color-interpolation-filters="sRGB"><feFlood flood-color="#fff" result="bg"/><feBlend in="SourceGraphic" in2="bg"/></filter><mask id="ah" x="172.84" y="13.64" width="57.65" height="33.7" maskUnits="userSpaceOnUse"><g style="filter:url(#ai)"><g transform="translate(60.4 -1.6)"><g style="mask:url(#g)"><path d="M170,48.9c1.4-2.6-10.3-12.1-26.1-21.2S114,13.3,112.4,15.9Z" style="mix-blend-mode:multiply;fill:url(#i)"/></g></g></g></mask><radialGradient id="aj" cx="-562.27" cy="103.54" r="20.42" xlink:href="#ag"/><filter id="al" x="30.78" y="27.41" width="121.6" height="71.08" filterUnits="userSpaceOnUse" color-interpolation-filters="sRGB"><feFlood flood-color="#fff" result="bg"/><feBlend in="SourceGraphic" in2="bg"/></filter><mask id="ak" x="91.18" y="25.83" width="121.6" height="71.08" maskUnits="userSpaceOnUse"><g style="filter:url(#al)"><g transform="translate(60.4 -1.6)"><g style="mask:url(#j)"><path d="M152.1,98.5c3-5.6-21.6-25.6-54.9-44.8s-63-30.3-66.4-24.9Z" style="mix-blend-mode:multiply;fill:url(#l)"/></g></g></g></mask><radialGradient id="am" cx="-368.09" cy="120.5" r="43.07" xlink:href="#ag"/><filter id="ao" x="-28.84" y="39.41" width="121.6" height="71.08" filterUnits="userSpaceOnUse" color-interpolation-filters="sRGB"><feFlood flood-color="#fff" result="bg"/><feBlend in="SourceGraphic" in2="bg"/></filter><mask id="an" x="31.56" y="37.83" width="121.6" height="71.08" maskUnits="userSpaceOnUse"><g style="filter:url(#ao)"><g transform="translate(60.4 -1.6)"><g style="mask:url(#m)"><path d="M-28.6,110.5c-2.9-5.6,21.6-25.6,55-44.8s63-30.3,66.4-25Z" style="mix-blend-mode:multiply;fill:url(#o)"/></g></g></g></mask><radialGradient id="ap" cx="-220.87" cy="147.83" r="43.07" gradientTransform="matrix(0.13, 0.23, 1.41, -0.81, -146.77, 246.6)" xlink:href="#ag"/><filter id="ar" x="-29.23" y="37.49" width="57.95" height="33.88" filterUnits="userSpaceOnUse" color-interpolation-filters="sRGB"><feFlood flood-color="#fff" result="bg"/><feBlend in="SourceGraphic" in2="bg"/></filter><mask id="aq" x="31.17" y="35.91" width="57.95" height="33.88" maskUnits="userSpaceOnUse"><g style="filter:url(#ar)"><g transform="translate(60.4 -1.6)"><g style="mask:url(#p)"><path d="M-29.1,71.4C-30.5,68.7-18.8,59.2-2.9,50s30-14.4,31.6-11.9Z" style="mix-blend-mode:multiply;fill:url(#r)"/></g></g></g></mask><radialGradient id="as" cx="-348.88" cy="137.01" r="20.53" gradientTransform="matrix(0.13, 0.23, 1.41, -0.81, -146.77, 246.6)" xlink:href="#ag"/><filter id="au" x="6.97" y="1.58" width="121.6" height="71.08" filterUnits="userSpaceOnUse" color-interpolation-filters="sRGB"><feFlood flood-color="#fff" result="bg"/><feBlend in="SourceGraphic" in2="bg"/></filter><mask id="at" x="67.37" y="0" width="121.6" height="71.08" maskUnits="userSpaceOnUse"><g style="filter:url(#au)"><g transform="translate(60.4 -1.6)"><g style="mask:url(#d)"><path d="M7.2,72.7C4.3,67,28.8,47.1,62.2,27.9s63-30.3,66.4-25Z" style="mix-blend-mode:multiply;fill:url(#f)"/></g></g></g></mask><radialGradient id="av" cx="-276.82" cy="178.53" r="43.07" gradientTransform="matrix(0.13, 0.23, 1.41, -0.81, -146.77, 246.6)" xlink:href="#ag"/></defs><g style="isolation:isolate"><rect y="9.3" width="264.2" height="117.72" style="fill:url(#s)"/><path d="M85.6,15.5l17.1,9.9a2.8,2.8,0,0,1,0,4.9L85.6,40.1a2.8,2.8,0,0,1-4.2-2.4V17.9A2.8,2.8,0,0,1,85.6,15.5Z" transform="translate(60.4 -1.6)" style="fill:url(#t)"/><path d="M80.7,113.9l21.7-12.5a3.6,3.6,0,0,0,0-6.2L80.7,82.7a3.6,3.6,0,0,0-5.4,3.1v25A3.6,3.6,0,0,0,80.7,113.9Z" transform="translate(60.4 -1.6)" style="fill:url(#u)"/><path d="M35.5,42.9,19.1,52.4a2.7,2.7,0,0,0,0,4.7l16.4,9.5a2.7,2.7,0,0,0,4-2.4V45.3A2.7,2.7,0,0,0,35.5,42.9Z" transform="translate(60.4 -1.6)" style="fill:url(#v)"/><path d="M89.8,25.1,49.5,48.4a3.6,3.6,0,0,0,0,6.2L89.8,77.8a3.6,3.6,0,0,0,5.4-3.1V28.2A3.6,3.6,0,0,0,89.8,25.1Z" transform="translate(60.4 -1.6)" style="fill:url(#w)"/><path d="M73.2,53l38.4,22.2a3.6,3.6,0,0,1,0,6.2L73.2,103.6a3.6,3.6,0,0,1-5.4-3.1V56.1A3.6,3.6,0,0,1,73.2,53Z" transform="translate(60.4 -1.6)" style="fill:url(#x)"/><path d="M128.9,68.2l20.7,11.9a1.9,1.9,0,0,1,0,3.3l-20.7,12a2,2,0,0,1-2.9-1.7V69.8A1.9,1.9,0,0,1,128.9,68.2Z" transform="translate(60.4 -1.6)" style="fill:url(#y)"/><path d="M133.7,28l16.1,9.4a1.5,1.5,0,0,1,0,2.6l-16.1,9.3a1.5,1.5,0,0,1-2.3-1.3V29.3A1.6,1.6,0,0,1,133.7,28Z" transform="translate(60.4 -1.6)" style="fill:url(#z)"/><path d="M107.9,51.8,135,67.5a2.5,2.5,0,0,1,0,4.4L107.9,87.5a2.5,2.5,0,0,1-3.7-2.2V54A2.5,2.5,0,0,1,107.9,51.8Z" transform="translate(60.4 -1.6)" style="fill:url(#aa)"/><path d="M53.2,50.5,23.1,67.9a2.7,2.7,0,0,0,0,4.8L53.2,90.1a2.8,2.8,0,0,0,4.2-2.4V52.9A2.8,2.8,0,0,0,53.2,50.5Z" transform="translate(60.4 -1.6)" style="fill:url(#ab)"/><path d="M9.9,48.8-9.8,60.2a1.8,1.8,0,0,0,0,3.1L9.9,74.7a1.8,1.8,0,0,0,2.7-1.6V50.4A1.8,1.8,0,0,0,9.9,48.8Z" transform="translate(60.4 -1.6)" style="fill:url(#ac)"/><path d="M42.5,69.5,9.2,88.7a5.5,5.5,0,0,0,0,9.5l33.3,19.2a5.5,5.5,0,0,0,8.2-4.7V74.3A5.5,5.5,0,0,0,42.5,69.5Z" transform="translate(60.4 -1.6)" style="fill:url(#ad)"/><g style="mask:url(#ae)"><path d="M182.4,94.7c2.9-5.6-21.6-25.6-55-44.8s-63-30.3-66.4-25Z" transform="translate(60.4 -1.6)" style="opacity:0.5;mix-blend-mode:multiply;fill:url(#ag)"/></g><g style="mask:url(#ah)"><path d="M170,48.9c1.4-2.6-10.3-12.1-26.1-21.2S114,13.3,112.4,15.9Z" transform="translate(60.4 -1.6)" style="opacity:0.5;mix-blend-mode:multiply;fill:url(#aj)"/></g><g style="mask:url(#ak)"><path d="M152.1,98.5c3-5.6-21.6-25.6-54.9-44.8s-63-30.3-66.4-24.9Z" transform="translate(60.4 -1.6)" style="opacity:0.5;mix-blend-mode:multiply;fill:url(#am)"/></g><g style="mask:url(#an)"><path d="M-28.6,110.5c-2.9-5.6,21.6-25.6,55-44.8s63-30.3,66.4-25Z" transform="translate(60.4 -1.6)" style="opacity:0.5;mix-blend-mode:multiply;fill:url(#ap)"/></g><g style="mask:url(#aq)"><path d="M-29.1,71.4C-30.5,68.7-18.8,59.2-2.9,50s30-14.4,31.6-11.9Z" transform="translate(60.4 -1.6)" style="opacity:0.5;mix-blend-mode:multiply;fill:url(#as)"/></g><g style="mask:url(#at)"><path d="M7.2,72.7C4.3,67,28.8,47.1,62.2,27.9s63-30.3,66.4-25Z" transform="translate(60.4 -1.6)" style="opacity:0.5;mix-blend-mode:multiply;fill:url(#av)"/></g></g></svg>