<?xml version="1.0" encoding="utf-8"?>
<!-- Generator: Adobe Illustrator 24.1.2, SVG Export Plug-In . SVG Version: 6.00 Build 0)  -->
<svg version="1.1" id="Layer_1" xmlns="http://www.w3.org/2000/svg" xmlns:xlink="http://www.w3.org/1999/xlink" x="0px" y="0px"
	 viewBox="0 0 1280 129" style="enable-background:new 0 0 1280 129;" xml:space="preserve">
<style type="text/css">
	.st0{fill:#4285F4;}
</style>
<path class="st0" d="M1281,95.5c0-16.5,0-33,0-49.5c-27.5,9.3-55.6,16.7-84,22.5c-20.2,4.2-40.6,7.6-61.1,10.6
	c-22.5,3.3-45.1,5.8-67.7,7.7c-37.7,3.1-75.5,3.6-113.3,3.3c-20.5-0.2-41-1-61.4-2.4c-22.8-1.5-45.6-3.8-68.4-6.5
	c-31.1-3.7-61.9-8.6-92.6-14.4c-35-6.7-69.6-15.3-104.1-24.3c-33.1-8.6-66.5-15.7-100.2-21.7c-23.5-4.2-47-7.8-70.7-10.6
	c-18.4-2.3-36.9-4.1-55.5-5.4C382,3.5,362,2.1,341.8,1.8c-1.3,0-2.7,0.2-3.8-0.8c-20.7,0-41.3,0-62,0c-1.6,1.2-3.5,0.9-5.3,0.9
	c-24.5,0.1-48.8,1.9-73.1,4.3C134.7,12.4,72.5,22.7,12.2,42c-2.3,0.7-4.6,1.6-6.8,2.4l0,0L0,46.3v22.4V129h630.4h8.6h231.6h6.1H1197
	h8.2h75.9L1281,95.5L1281,95.5z"/>
</svg>
