<svg xmlns="http://www.w3.org/2000/svg" width="348.4" height="697.2" viewBox="0 0 348.4 697.2"><path d="M779.6,527.5c0,98,.3,195.9-.2,293.9-.1,31-23.2,53.6-54.1,53.7q-119.8.4-239.7,0c-31.9-.1-54.1-23.4-54.2-56.6-.2-78-.1-156-.1-234.1q0-171.3.1-342.5c0-43.6,20.2-63.7,64-63.7H719.7c38.1.1,59.8,21.6,59.9,59.4Q779.8,382.5,779.6,527.5Zm-21.5-.3h.1V418.5q0-91.2-.1-182.5c0-18.9-6.5-30.2-20.5-34.1s-26.7-1.6-40.1-1.5c-4.9,0-5.3,4-6.2,7.8-2.4,10.6-9.3,15.2-20.2,15.2q-65.4-.3-130.9,0c-10.9,0-18.5-4.2-20.3-14.9-1.3-7.7-5.6-8.6-11.6-8.4h-14c-32.5,0-41.5,8.9-41.5,41.2q0,168.5.1,337,0,119.9,0,239.7c0,24.2,10.9,35.3,34.7,35.4q118.4.3,236.8,0c21.7-.1,33.5-11.1,33.6-32.3C758.3,723.2,758.1,625.2,758.1,527.2Z" transform="translate(-431.3 -178.2)"/><path d="M517.2,477c22.8,0,23.9,1.2,23.9,26,0,22.6-1.3,23.6-30.7,23.5-17.4-.1-18.8-2.1-18.8-26.8C491.7,477.9,492.8,476.9,517.2,477Z" transform="translate(-431.3 -178.2)"/><path d="M491.7,289.7c0-23.8.7-24.5,23.7-24.5,25.1,0,25.7.6,25.7,25.5,0,22.8-1.3,24-26,23.9C492.7,314.6,491.7,313.6,491.7,289.7Z" transform="translate(-431.3 -178.2)"/><path d="M726.3,290.4c0,23.6-.7,24.3-25.5,24.2-22.8,0-23.9-1.2-23.9-26,0-22.7.9-23.4,26.4-23.4C725.7,265.2,726.3,266,726.3,290.4Z" transform="translate(-431.3 -178.2)"/><path d="M631.7,291.1c-.1,22.9-.8,23.6-26.1,23.5-22.2,0-23.2-1-23.2-25.2s.6-24.3,26.9-24.2C631,265.2,631.7,266,631.7,291.1Z" transform="translate(-431.3 -178.2)"/><path d="M582.4,430c.1-23.2.3-23.4,26.4-23.4,22.9,0,22.9.1,22.9,26.8-.1,21.4-1.1,22.3-26.3,22.3C583.4,455.7,582.4,454.5,582.4,430Z" transform="translate(-431.3 -178.2)"/><path d="M607.1,526.5c-24.1-.2-24.8-1.1-24.7-28.2.2-20.5,1.5-21.5,28.8-21.3,19.8.1,20.8,1.5,20.5,29.4C631.5,524.3,628.6,526.7,607.1,526.5Z" transform="translate(-431.3 -178.2)"/><path d="M516.1,406.6c24.5,0,25,.5,25,24.6s-1.1,24.5-25.3,24.5-24.2-.9-24.1-25.6S492,406.6,516.1,406.6Z" transform="translate(-431.3 -178.2)"/><path d="M726.3,430.5c0,24.3-.9,25.2-24.5,25.2s-24.9-1.1-24.9-24.9.4-24.2,25.4-24.2S726.3,406.9,726.3,430.5Z" transform="translate(-431.3 -178.2)"/><path d="M517.2,336.3c23.5,0,23.9.5,23.9,25.9-.1,22.1-1,23-25.6,23s-23.9-.3-23.8-26.1C491.7,336.5,491.9,336.3,517.2,336.3Z" transform="translate(-431.3 -178.2)"/><path d="M726.3,362c0,22.6-.6,23.2-25.2,23.2s-24.2-.7-24.2-25.8c0-22.8.3-23.1,26.8-23.1C726,336.4,726.3,336.8,726.3,362Z" transform="translate(-431.3 -178.2)"/><path d="M607.7,336.3c23.9,0,24,.1,24,25.7-.1,22.9-.5,23.2-26.6,23.2-22,0-22.7-.8-22.7-25.8C582.5,336.7,582.9,336.3,607.7,336.3Z" transform="translate(-431.3 -178.2)"/><path d="M516.4,831.4c-24.7,0-24.7,0-24.7-24.8s.6-23.9,24.5-23.9,24.9.6,24.9,25S540.5,831.4,516.4,831.4Z" transform="translate(-431.3 -178.2)"/><path d="M610.3,831.4c-24.5,0-24.8-.3-24.9-23.4,0-24.7.5-25.3,23.1-25.3,26.1,0,23.2.1,23.2,24.9S634.5,831.4,610.3,831.4Z" transform="translate(-431.3 -178.2)"/><path d="M701.5,831.4c-24.3,0-24.6-.3-24.6-25.2,0-22.9.7-23.5,26.4-23.5,22.3,0,23,.8,23,25.4S726.1,831.4,701.5,831.4Z" transform="translate(-431.3 -178.2)"/></svg>