<svg id="Layer_1" data-name="Layer 1" xmlns="http://www.w3.org/2000/svg" viewBox="0 0 171.7 204.7">
  <g>
    <path d="M555.9,547.9a126.1,126.1,0,0,1,36.6,5.3c3.3,1,4,2.4,3,5.6-5.9,18-10.8,36.2-14.9,54.7a13.8,13.8,0,0,1-3.3,5.7c-3.9,4.5-3.8,10.3.1,14.4s9.9,5,14.5,1.6a10.4,10.4,0,0,0,3.1-14.1,9.4,9.4,0,0,1-.9-7.3c3.8-16.9,7.3-34,9.6-51.2.6-4.2,2-4.6,5.5-2.7,12.2,6.9,23.6,14.5,28.8,28.3a21.7,21.7,0,0,1,1.8,7.5c.5,6.6-3.2,10.9-9.8,11.1s-10.7-.2-16,.1-9.8,3.5-10.3,7.6,3,8.7,8.3,10.5a31.9,31.9,0,0,0,4.4,1.3c4.8,1.2,8,4.1,8.7,9.1s-1.2,8.8-5,11.7a81.6,81.6,0,0,1-31,14.8c-29.7,6.7-58.7,5.4-86.5-8.3A75.9,75.9,0,0,1,484.4,641c-21.9-20.4-21.6-49.1.8-69,16.7-15,37-21.3,58.8-23.6C548,548,551.9,548.1,555.9,547.9Zm-43.3,36.7c5.1-.1,10-2.8,13.6-7.6,2.2-3,3.1-6.5,1.3-10.1s-4.9-5.1-8.7-5.3c-6.1-.4-11.1,2.1-14.9,6.7s-3.9,6.9-2,10.9S507.5,584.5,512.6,584.6Zm41.5,75.3c7.7,0,14.2-4.7,14.3-10.5s-5.6-10.4-13.4-11-15.1,4.3-15.3,10.4S546.2,659.8,554.1,659.9Zm-39.4-10.6c4.1-.1,7.5-1.1,9.5-4.6s1.4-7-.6-10.2a18,18,0,0,0-14.3-8.8c-4-.3-7.5,1.1-9.7,4.6s-1.4,7,.6,10.2A17.7,17.7,0,0,0,514.7,649.3Zm41.6-95.9c-7.9-.1-14.6,4.7-14.7,10.6s6.9,11.3,15,11,13.6-5.2,13.7-10.7S563.9,553.5,556.3,553.4ZM498.6,602a21.6,21.6,0,0,0-.3-2.9c-.9-5.5-4.4-9.5-8.8-10s-9.1,2.7-11,8.2a17.4,17.4,0,0,0-1.1,4.5c-.8,8.4,3.4,15.3,9.6,15.7S498.6,611.2,498.6,602Z" transform="translate(-468.2 -509.8)"/>
    <path d="M609.9,509.8a17.6,17.6,0,0,1,6.9,13.3,36.7,36.7,0,0,1-3,17c-2.2,5.2-6.1,7.4-10.4,6.2s-6-4.4-5.3-10.3,2.7-10.3,7.8-13.7S608.9,514.7,609.9,509.8Z" transform="translate(-468.2 -509.8)"/>
    <path d="M563.7,714.5c-.4-7.5,1.1-14.1,2-20.8s2.6-14.9,3.9-22.3c.7-3.6,5.4-6.3,8.8-5.3,1.4.5,1.3,1.4,1,2.4-4.2,15-7.4,30.4-13.9,44.7C565.4,713.5,564.8,713.7,563.7,714.5Z" transform="translate(-468.2 -509.8)"/>
  </g>
  <path d="M602.3,548.4c-2.2-.5-2.4,1.3-2.8,2.8-3.9,13-12.7,44.6-13.1,46.2-2.6,11.1-5.5,22-7.9,33.1-.9,3.7,2.8,4.2,5.2,5.1s3.7.5,4.3-2.1c2.4-11.3,4.9-22.5,7.3-33.8.4-1.5,6.2-34.3,8.4-47.8C603.5,550.6,604.3,548.9,602.3,548.4Z" transform="translate(-468.2 -509.8)"/>
</svg>
