<svg id="Layer_1" data-name="Layer 1" xmlns="http://www.w3.org/2000/svg" viewBox="0 0 247.7 165.5">
  <g>
    <path d="M412.1,596c0-39.2,28-73.6,65.8-80.9,40.1-7.8,78.9,13,93.8,50,4.9,12.4,2.1,19.9-9.6,26.3s-21.3,10.5-31.2,17c-15.3,10.1-15.8,22.4-1.2,33.4,5.8,4.4,8.9,9.9,7.8,17.2s-5.8,11.6-12.5,14.2C471,694.5,412,654.2,412.1,596Zm31.4-8.2a13.4,13.4,0,1,0-13.7-13.2A13.8,13.8,0,0,0,443.5,587.8Zm-13.9,29.6a13.6,13.6,0,0,0,13.7,13.2A13.3,13.3,0,0,0,456.5,617a13.7,13.7,0,0,0-13.6-13.4C435.6,603.7,429.6,610.1,429.6,617.4Zm43.8-59.7a13.4,13.4,0,1,0-13-13.9A13.4,13.4,0,0,0,473.4,557.7Zm56.6-13a13.5,13.5,0,1,0-13.6,13.2A13.2,13.2,0,0,0,530,544.7ZM486.5,648.1a13.1,13.1,0,0,0-12.8-13.8,13.3,13.3,0,1,0-1.1,26.6A13.1,13.1,0,0,0,486.5,648.1Z" transform="translate(-412.1 -513.5)"/>
    <path d="M586.6,622.2a11.1,11.1,0,0,1-11.1-12.3c.8-5.7,3.5-10.6,6.5-15.4,18.1-29.7,42.3-54.2,68.6-76.6,2.1-1.8,4.5-3.4,7.3-1.4s2,4.7.9,7.3c-14,30.2-30.2,59.1-52.6,84.1A64.9,64.9,0,0,1,594.5,619C592.1,620.7,589.6,622.2,586.6,622.2Z" transform="translate(-412.1 -513.5)"/>
    <path d="M548.2,669.2c4.6-7.1,5.2-14.9,5.3-22.8,0-6-.3-12.1,1.4-17.9,1.1-3.9,2.8-7.4,6.3-9.7s7-4,9.8,1.7c2,4.1,6.2,6.7,10.6,8.1,2.3.8,3.5,1.8,3.1,4.5-3.1,20.7-12.9,33.5-34.4,36.5A6.3,6.3,0,0,1,548.2,669.2Z" transform="translate(-412.1 -513.5)"/>
  </g>
</svg>
