<svg id="Layer_1" data-name="Layer 1" xmlns="http://www.w3.org/2000/svg" viewBox="0 0 324.6 302">
  <g>
    <path d="M388.5,745.6h-71c-15.4,0-24.8-9.3-24.8-24.6V624.5c0-15.5,9.3-24.7,24.6-24.7h42.6l80.3.2,21.3-.2c12.7.1,22.6,9.4,22.7,22q.3,50.9,0,101.7c-.1,12.8-10.2,22.1-23.1,22.1C436.9,745.7,412.7,745.6,388.5,745.6Z" transform="translate(-273.1 -454.7)"/>
    <path d="M597.6,672.7v70.7c0,11.5-7.9,16.4-18.3,11.4-24.4-11.6-48.8-23.3-73-35.4-6.5-3.2-9.4-7.7-9.4-15q.5-31.8.1-63.6c-.1-7,2.6-11.4,8.8-14.6,24.9-12.8,50.5-24.2,75.6-36.6,8-3.9,16.2,1.8,16.2,10.9C597.7,624.6,597.6,648.7,597.6,672.7Z" transform="translate(-273.1 -454.7)"/>
    <path d="M439.1,584.2a64.8,64.8,0,1,1,65-64.8A64.7,64.7,0,0,1,439.1,584.2Z" transform="translate(-273.1 -454.7)"/>
    <path d="M319.3,498.6A45.6,45.6,0,0,1,365,544.9c-.3,25.7-20.5,45.2-46.3,45.3a45.8,45.8,0,1,1,.6-91.6Z" transform="translate(-273.1 -454.7)"/>
  </g>
</svg>
